HIERARCHY
ROOT Hips
{
	OFFSET 0.00000 0.00000 0.00000
	CHANNELS 6 Xposition Yposition Zposition Yrotation Zrotation Xrotation 
	JOINT Lumbar
	{
		OFFSET 0 0 0
		CHANNELS 3 Zrotation Xrotation Yrotation
		JOINT Neck
		{
			OFFSET 0.00 0.2701 0.00
			CHANNELS 3 Zrotation Xrotation Yrotation
			End Site
			{
				OFFSET 0.00 0.1379 0.00
			}
		}
		JOINT RightShoulder
		{
			OFFSET 0.0119 0.2289 0.1181
			CHANNELS 3 Zrotation Xrotation Yrotation
			JOINT RightElbow
			{
				OFFSET 0.00 -0.1475 0.00
				CHANNELS 2 Zrotation Yrotation
				JOINT RightWrist
				{
					OFFSET 0.00 -0.1605 0.00
					CHANNELS 2 Zrotation Xrotation
					End Site
					{
						OFFSET 0.0040 -0.1068 0.0006
					}
				}
			}
		}
		JOINT LeftShoulder
		{
			OFFSET 0.0119 0.2289 -0.1181
			CHANNELS 3 Zrotation Xrotation Yrotation
			JOINT LeftElbow
			{
				OFFSET 0.00 -0.1475 0.00
				CHANNELS 2 Zrotation Yrotation
				JOINT LeftWrist
				{
					OFFSET 0.00 -0.1605 0.00
					CHANNELS 2 Zrotation Xrotation
					End Site
					{
						OFFSET 0.0040 -0.1068 -0.0006
					}
				}
			}
		}
	}
	JOINT RightHip
	{
		OFFSET 0.0316 -0.0424 0.0458
		CHANNELS 3 Zrotation Xrotation Yrotation
		JOINT RightKnee
		{
			OFFSET 0.00 -0.2438 0.00
			CHANNELS 1 Zrotation
			JOINT RightAnkle
			{
				OFFSET 0.00 -0.2449 0.00
				CHANNELS 3 Zrotation Xrotation Yrotation
				End Site
				{
					OFFSET 0.1237 -0.0542 0.0051
				}
			}
		}
	}
	JOINT LeftHip
	{
		OFFSET 0.0316 -0.0424 -0.0458
		CHANNELS 3 Zrotation Xrotation Yrotation
		JOINT LeftKnee
		{
			OFFSET 0.00 -0.2438 0.00
			CHANNELS 1 Zrotation
			JOINT LeftAnkle
			{
				OFFSET 0.00 -0.2449 0.00
				CHANNELS 3 Zrotation Xrotation Yrotation
				End Site
				{
					OFFSET 0.1237 -0.0542 -0.0051
				}
			}
		}
	}
}
MOTION
Frames: 25
Frame Time: 0.02
-0.00128 0.00026 0.00083 28.06442 -29.23555 -4.12463 43.79307 2.98074 0.18794 15.03738 -8.71403 -1.08433 28.02753 -10.29266 15.04638 32.01545 83.77376 1.65979 -1.00972 32.62883 4.67904 -17.11324 43.96971 -82.08578 -1.15258 1.15853 43.06245 0.08786 0.17221 -19.89131 -6.55752 -3.22935 -3.80655 49.28472 3.95917 5.06749 -24.70395 -7.23439 0.51573 2.52924
-0.00086 0.0002 0.00112 28.12102 -29.24448 -4.10137 43.87087 2.99927 0.30428 14.55495 -8.47785 -1.08631 26.45633 -10.36436 14.28207 31.64072 83.84706 1.71934 -0.97907 30.0889 5.17091 -16.65946 44.16584 -82.16077 -1.15373 1.01778 43.02772 -0.06007 -0.78707 -19.9103 -6.53183 -3.14031 -3.75948 49.27529 3.97907 5.08508 -24.70553 -7.23687 0.51009 2.52658
-0.00044 0.00014 0.00141 28.17743 -29.25343 -4.07815 43.9486 3.01782 0.42011 14.07315 -8.24227 -1.08827 24.88648 -10.43595 13.51804 31.2667 83.92009 1.7785 -0.94845 27.55172 5.6616 -16.20517 44.3608 -82.23499 -1.15538 0.87727 42.99302 -0.20758 -1.74365 -19.92922 -6.5062 -3.0515 -3.71254 49.26583 3.99891 5.10262 -24.70711 -7.23933 0.50447 2.52393
-2e-05 8e-05 0.00169 28.23385 -29.26234 -4.05497 44.02619 3.0363 0.53608 13.59208 -8.00678 -1.09024 23.31961 -10.50746 12.7558 30.89304 83.99315 1.83784 -0.9179 25.01886 6.15201 -15.75241 44.55624 -82.30965 -1.15661 0.73694 42.95839 -0.35506 -2.70003 -19.94815 -6.48059 -2.96272 -3.66561 49.25642 4.01875 5.12015 -24.70869 -7.24179 0.49885 2.52128
0.0004 2e-05 0.00198 28.29046 -29.27123 -4.03176 44.1038 3.05474 0.65257 13.11066 -7.77076 -1.09221 21.75256 -10.57901 11.99392 30.51886 84.06652 1.89763 -0.88731 22.485 6.64348 -15.30107 44.75308 -82.38531 -1.15713 0.59641 42.92373 -0.50295 -3.659 -19.96717 -6.45491 -2.87374 -3.61856 49.24704 4.03863 5.13776 -24.71027 -7.24429 0.49318 2.51862
0.00082 -4e-05 0.00227 28.34648 -29.2803 -4.00851 44.18177 3.0735 0.76702 12.62809 -7.53614 -1.09418 20.17688 -10.65066 11.22534 30.1452 84.13885 1.95548 -0.85664 19.94094 7.13252 -14.84071 44.94407 -82.45653 -1.16114 0.45595 42.88897 -0.64965 -4.61046 -19.98586 -6.42941 -2.78531 -3.57184 49.23743 4.05839 5.15514 -24.71185 -7.24665 0.48768 2.51602
0.00124 -0.0001 0.00256 28.4036 -29.28899 -3.98539 44.25891 3.0916 0.8855 12.14847 -7.2989 -1.09615 18.6207 -10.7221 10.47148 29.77088 84.2131 2.01716 -0.82622 17.42067 7.62582 -14.39852 45.14661 -82.53652 -1.15816 0.31557 42.85448 -0.79859 -5.57601 -20.00519 -6.40357 -2.69585 -3.52452 49.22833 4.07838 5.17293 -24.71344 -7.24929 0.48186 2.51329
0.00166 -0.00016 0.00284 28.45974 -29.29803 -3.96213 44.33688 3.11032 1.00015 11.66594 -7.06419 -1.09812 17.04581 -10.79362 9.70332 29.39723 84.28575 2.07535 -0.79545 14.87763 8.11536 -13.94047 45.33849 -82.60854 -1.16158 0.17501 42.81968 -0.94545 -6.52853 -20.02392 -6.37805 -2.60734 -3.47775 49.2187 4.09817 5.19041 -24.71501 -7.25167 0.47632 2.51068
0.00209 -0.00021 0.00312 28.51458 -29.3075 -3.93875 44.41566 3.12978 1.11058 11.18025 -6.83202 -1.10008 15.44963 -10.86574 8.91989 29.02391 84.3558 2.12909 -0.76471 12.30807 8.59993 -13.45895 45.51737 -82.67028 -1.17309 0.03456 42.78471 -1.08987 -7.46569 -20.04198 -6.35289 -2.51993 -3.43163 49.20863 4.11765 5.20725 -24.71659 -7.25371 0.47118 2.50823
0.00248 -0.00028 0.00343 28.57656 -29.31452 -3.9162 44.48916 3.14493 1.2467 10.71392 -6.58354 -1.10207 13.98058 -10.9359 8.2309 28.64721 84.43886 2.20789 -0.73517 9.89485 9.11199 -13.10011 45.77112 -82.78958 -1.13888 -0.10555 42.75134 -1.24865 -8.49296 -20.06409 -6.32559 -2.42604 -3.3817 49.20171 4.13874 5.22697 -24.71821 -7.25764 0.46391 2.50489
0.00294 -0.00033 0.00368 28.62371 -29.32667 -3.89183 44.57417 3.16918 1.32774 10.20609 -6.37057 -1.10401 12.24086 -11.00925 7.33875 28.27864 84.49573 2.23415 -0.70225 7.15014 9.5667 -12.49061 45.86692 -82.78851 -1.20055 -0.24695 42.71423 -1.37694 -9.32892 -20.07754 -6.30282 -2.34593 -3.33985 49.18776 4.15654 5.24113 -24.71967 -7.25764 0.46104 2.5034
0.00356 -0.00034 0.00374 28.62761 -29.35357 -3.86276 44.68824 3.21871 1.26388 9.58826 -6.24698 -1.10583 9.77026 -11.09876 5.91275 27.92451 84.47417 2.11309 -0.66563 3.49977 9.85351 -11.10999 45.52508 -82.45878 -1.52698 -0.38866 42.67007 -1.42221 -9.64503 -20.06802 -6.29249 -2.30308 -3.31988 49.15753 4.16448 5.23559 -24.72134 -7.24631 0.47111 2.50735
0.00423 -0.00034 0.00374 28.61693 -29.38558 -3.83177 44.81438 3.27735 1.14391 8.92814 -6.16052 -1.10761 7.02633 -11.18967 4.27706 27.58012 84.43062 1.94059 -0.6237 -0.4828 10.0819 -9.48727 45.02575 -82.01751 -1.94539 -0.53311 42.62174 -1.43676 -9.76813 -20.0497 -6.28674 -2.27416 -3.30805 49.1198 4.16928 5.22519 -24.72274 -7.23114 0.48547 2.51312
0.00489 -0.00034 0.00376 28.61478 -29.41473 -3.80146 44.93665 3.33162 1.04509 8.28467 -6.06234 -1.1094 4.39876 -11.27567 2.72352 27.23627 84.39747 1.79268 -0.58171 -4.31785 10.3475 -8.0371 44.60075 -81.6139 -2.32574 -0.67735 42.57303 -1.46492 -9.97616 -20.03489 -6.2789 -2.23924 -3.29268 49.08339 4.17609 5.22009 -24.72385 -7.21809 0.49731 2.51783
0.0055 -0.00036 0.0038 28.60522 -29.44586 -3.77206 45.05204 3.3868 0.96309 7.65146 -5.94252 -1.1112 1.80081 -11.38153 1.23035 26.871 84.34981 1.63641 -0.5538 -8.145 10.57951 -6.34637 44.16232 -81.22541 -2.70693 -0.81375 42.53326 -1.49441 -10.1954 -20.02204 -6.27106 -2.20301 -3.27672 49.05527 4.18044 5.20239 -24.7267 -7.20343 0.51151 2.52348
0.00623 -0.00034 0.00379 28.60683 -29.47446 -3.74017 45.1847 3.44235 0.83454 6.98747 -5.87653 -1.11298 -0.91987 -11.4441 -0.44492 26.55326 84.34313 1.48931 -0.49072 -12.05982 10.85321 -5.06933 43.71637 -80.82874 -3.08758 -0.97147 42.4747 -1.51394 -10.34575 -20.00312 -6.26434 -2.1727 -3.26385 49.00875 4.18914 5.20921 -24.72586 -7.19121 0.52189 2.52764
0.00726 -0.00022 0.00365 28.64983 -29.49144 -3.70308 45.36099 3.49581 0.57641 6.24429 -5.95031 -1.11471 -3.94229 -11.40753 -2.50658 26.35935 84.30942 1.34499 -0.37418 -16.19684 11.38432 -5.26245 43.27363 -79.99535 -3.62551 -1.14819 42.35818 -1.51304 -10.35215 -19.96868 -6.25915 -2.15612 -3.25804 48.90788 4.21092 5.28999 -24.71476 -7.18683 0.5198 2.52682
0.00839 -7e-05 0.00347 28.70334 -29.50629 -3.66335 45.55419 3.54955 0.27632 5.47286 -6.0769 -1.11641 -7.07215 -11.3246 -4.75112 26.21395 84.33853 1.21715 -0.21659 -20.39775 11.93849 -5.83781 42.83196 -79.22868 -4.12967 -1.35209 42.22424 -1.5033 -10.29625 -19.9286 -6.25501 -2.14484 -3.25496 48.7898 4.2371 5.39465 -24.69998 -7.185 0.51387 2.52451
0.00947 7e-05 0.00332 28.7474 -29.52441 -3.62402 45.74064 3.60367 0.00498 4.71684 -6.17919 -1.11811 -10.13455 -11.24783 -6.96117 26.04955 84.44241 1.10623 -0.04737 -24.53065 12.39441 -6.05246 42.39879 -78.73543 -4.52553 -1.57117 42.10291 -1.49789 -10.26937 -19.89171 -6.25067 -2.1306 -3.2503 48.6831 4.26108 5.48513 -24.68697 -7.18189 0.51023 2.52314
0.01059 0.0002 0.00313 28.81045 -29.5332 -3.58791 45.92453 3.65573 -0.30984 3.94686 -6.28417 -1.11984 -13.28932 -11.22934 -8.99468 25.87232 84.13542 0.89501 0.00272 -28.84498 13.20663 -7.01686 41.9203 -77.00264 -5.43096 -1.6803 41.96153 -1.49002 -10.23221 -19.85186 -6.24529 -2.11917 -3.24736 48.56097 4.28591 5.58969 -24.67355 -7.17915 0.5044 2.52072
0.01165 0.00035 0.00301 28.83692 -29.5606 -3.54458 46.11641 3.71232 -0.54254 3.20186 -6.39547 -1.12153 -16.26842 -11.08435 -11.40976 25.73362 84.66667 0.89158 0.2999 -32.78567 13.29831 -6.55278 41.54086 -77.81033 -5.28549 -2.01709 41.85792 -1.48568 -10.20489 -19.81697 -6.24231 -2.10294 -3.24138 48.46715 4.30992 5.67042 -24.66011 -7.1763 0.5022 2.52012
0.01256 0.00054 0.0031 28.75754 -29.64186 -3.48141 46.33609 3.77899 -0.54431 2.51557 -6.51218 -1.12298 -18.77594 -10.54985 -15.06642 25.68581 87.78249 1.50671 1.36312 -35.73123 11.2638 -1.71511 41.41702 -86.11621 -2.0787 -3.04188 41.86228 -1.49247 -10.21487 -19.79701 -6.24535 -2.07241 -3.22624 48.45448 4.33176 5.68188 -24.64776 -7.17243 0.51049 2.52476
0.01341 0.00074 0.00328 28.64167 -29.74145 -3.41122 46.56109 3.85062 -0.46036 1.85907 -6.63294 -1.12448 -21.09177 -9.89869 -19.05873 25.67561 91.68927 2.32132 2.65729 -38.28562 8.52875 4.50939 41.39798 -96.88009 2.15193 -4.28205 41.90535 -1.50344 -10.23877 -19.78233 -6.2508 -2.03678 -3.20794 48.47125 4.35246 5.66841 -24.6356 -7.16843 0.52258 2.53128
0.01426 0.00093 0.00342 28.54383 -29.83142 -3.34455 46.77742 3.92147 -0.41167 1.2001 -6.75128 -1.12595 -23.47087 -9.33546 -22.74066 25.65068 95.04358 3.0131 3.78266 -40.98506 6.19972 9.87777 41.34199 -106.19647 5.80652 -5.38085 41.93112 -1.51319 -10.26076 -19.76533 -6.25535 -2.00321 -3.19106 48.47525 4.37287 5.66449 -24.62303 -7.16452 0.53327 2.53707
0.01521 0.00114 0.00353 28.43944 -29.92706 -3.27621 47.02167 3.98608 -0.38098 0.49234 -6.87453 -1.12717 -25.96428 -8.62554 -27.08548 25.61802 99.20397 3.84208 5.17401 -43.83127 3.49867 16.18684 41.23649 -116.92548 9.93695 -6.66604 41.95516 -1.51973 -10.26214 -19.74767 -6.25917 -1.97078 -3.17425 48.47571 4.39665 5.66775 -24.61119 -7.16042 0.54266 2.54237
